<mxfile host="Electron" agent="Mozilla/5.0 (Windows NT 10.0; Win64; x64) AppleWebKit/537.36 (KHTML, like Gecko) draw.io/27.0.9 Chrome/134.0.6998.205 Electron/35.4.0 Safari/537.36" version="27.0.9">
  <diagram name="Page-1" id="CfBW-TU8uqsvRhThWzrN">
    <mxGraphModel dx="1042" dy="674" grid="1" gridSize="10" guides="1" tooltips="1" connect="1" arrows="1" fold="1" page="1" pageScale="1" pageWidth="1100" pageHeight="850" math="0" shadow="0">
      <root>
        <mxCell id="0" />
        <mxCell id="1" parent="0" />
        <mxCell id="ehasvwm9NtqDdE8bAoII-1" value="" style="rounded=0;whiteSpace=wrap;html=1;dashed=1;" parent="1" vertex="1">
          <mxGeometry x="70" y="140" width="160" height="390" as="geometry" />
        </mxCell>
        <mxCell id="ehasvwm9NtqDdE8bAoII-2" value="Sources" style="text;html=1;align=center;verticalAlign=middle;whiteSpace=wrap;rounded=0;fontSize=20;fillColor=default;" parent="1" vertex="1">
          <mxGeometry x="95" y="120" width="110" height="50" as="geometry" />
        </mxCell>
        <mxCell id="ehasvwm9NtqDdE8bAoII-11" value="" style="rounded=1;whiteSpace=wrap;html=1;perimeterSpacing=0;strokeColor=#DB8630;" parent="1" vertex="1">
          <mxGeometry x="300" y="190" width="160" height="340" as="geometry" />
        </mxCell>
        <mxCell id="ehasvwm9NtqDdE8bAoII-12" value="&lt;font style=&quot;font-size: 20px;&quot;&gt;Bronze Layer&lt;/font&gt;" style="rounded=1;whiteSpace=wrap;html=1;labelBackgroundColor=light-dark(default, #e61919);fillStyle=solid;fillColor=#DB8630;" parent="1" vertex="1">
          <mxGeometry x="300" y="140" width="160" height="35" as="geometry" />
        </mxCell>
        <mxCell id="ehasvwm9NtqDdE8bAoII-15" value="" style="rounded=1;whiteSpace=wrap;html=1;perimeterSpacing=0;strokeColor=#B3B3B3;" parent="1" vertex="1">
          <mxGeometry x="510" y="190" width="160" height="340" as="geometry" />
        </mxCell>
        <mxCell id="ehasvwm9NtqDdE8bAoII-16" value="Silver Layer" style="rounded=1;whiteSpace=wrap;html=1;fillStyle=solid;fillColor=#B3B3B3;fontSize=20;" parent="1" vertex="1">
          <mxGeometry x="510" y="140" width="160" height="35" as="geometry" />
        </mxCell>
        <mxCell id="ehasvwm9NtqDdE8bAoII-17" value="" style="rounded=1;whiteSpace=wrap;html=1;perimeterSpacing=0;strokeColor=#E5DE11;" parent="1" vertex="1">
          <mxGeometry x="720" y="190" width="160" height="340" as="geometry" />
        </mxCell>
        <mxCell id="ehasvwm9NtqDdE8bAoII-18" value="Gold Layer" style="rounded=1;whiteSpace=wrap;html=1;fillColor=#F3C71D;fontSize=20;strokeColor=#E5DE11;" parent="1" vertex="1">
          <mxGeometry x="720" y="140" width="160" height="35" as="geometry" />
        </mxCell>
        <mxCell id="ehasvwm9NtqDdE8bAoII-45" style="edgeStyle=orthogonalEdgeStyle;rounded=0;orthogonalLoop=1;jettySize=auto;html=1;entryX=0;entryY=0.5;entryDx=0;entryDy=0;" parent="1" source="ehasvwm9NtqDdE8bAoII-20" target="ehasvwm9NtqDdE8bAoII-31" edge="1">
          <mxGeometry relative="1" as="geometry">
            <Array as="points">
              <mxPoint x="250" y="285" />
              <mxPoint x="250" y="285" />
            </Array>
          </mxGeometry>
        </mxCell>
        <mxCell id="ehasvwm9NtqDdE8bAoII-51" style="edgeStyle=orthogonalEdgeStyle;rounded=0;orthogonalLoop=1;jettySize=auto;html=1;" parent="1" source="ehasvwm9NtqDdE8bAoII-20" target="ehasvwm9NtqDdE8bAoII-30" edge="1">
          <mxGeometry relative="1" as="geometry" />
        </mxCell>
        <mxCell id="ehasvwm9NtqDdE8bAoII-52" style="edgeStyle=orthogonalEdgeStyle;rounded=0;orthogonalLoop=1;jettySize=auto;html=1;entryX=0;entryY=0.5;entryDx=0;entryDy=0;" parent="1" source="ehasvwm9NtqDdE8bAoII-20" target="ehasvwm9NtqDdE8bAoII-32" edge="1">
          <mxGeometry relative="1" as="geometry" />
        </mxCell>
        <mxCell id="ehasvwm9NtqDdE8bAoII-20" value="&lt;b&gt;CRM&lt;/b&gt;" style="image;aspect=fixed;html=1;points=[];align=center;fontSize=12;image=img/lib/azure2/general/Folder_Blank.svg;" parent="1" vertex="1">
          <mxGeometry x="119.19" y="260" width="60.81" height="49.35" as="geometry" />
        </mxCell>
        <mxCell id="ehasvwm9NtqDdE8bAoII-49" style="edgeStyle=orthogonalEdgeStyle;rounded=0;orthogonalLoop=1;jettySize=auto;html=1;entryX=0;entryY=0.5;entryDx=0;entryDy=0;" parent="1" source="ehasvwm9NtqDdE8bAoII-21" target="ehasvwm9NtqDdE8bAoII-35" edge="1">
          <mxGeometry relative="1" as="geometry" />
        </mxCell>
        <mxCell id="ehasvwm9NtqDdE8bAoII-53" style="edgeStyle=orthogonalEdgeStyle;rounded=0;orthogonalLoop=1;jettySize=auto;html=1;" parent="1" source="ehasvwm9NtqDdE8bAoII-21" target="ehasvwm9NtqDdE8bAoII-34" edge="1">
          <mxGeometry relative="1" as="geometry" />
        </mxCell>
        <mxCell id="ehasvwm9NtqDdE8bAoII-55" style="edgeStyle=orthogonalEdgeStyle;rounded=0;orthogonalLoop=1;jettySize=auto;html=1;entryX=0;entryY=0.5;entryDx=0;entryDy=0;" parent="1" source="ehasvwm9NtqDdE8bAoII-21" target="ehasvwm9NtqDdE8bAoII-36" edge="1">
          <mxGeometry relative="1" as="geometry" />
        </mxCell>
        <mxCell id="ehasvwm9NtqDdE8bAoII-21" value="&lt;b&gt;ERP&lt;/b&gt;" style="image;aspect=fixed;html=1;points=[];align=center;fontSize=12;image=img/lib/azure2/general/Folder_Blank.svg;" parent="1" vertex="1">
          <mxGeometry x="119.19" y="420" width="61.61" height="50" as="geometry" />
        </mxCell>
        <mxCell id="ehasvwm9NtqDdE8bAoII-22" value="" style="image;aspect=fixed;html=1;points=[];align=center;fontSize=12;image=img/lib/azure2/general/File.svg;" parent="1" vertex="1">
          <mxGeometry x="170" y="290" width="24.35" height="30" as="geometry" />
        </mxCell>
        <mxCell id="ehasvwm9NtqDdE8bAoII-23" value="" style="image;aspect=fixed;html=1;points=[];align=center;fontSize=12;image=img/lib/azure2/general/File.svg;" parent="1" vertex="1">
          <mxGeometry x="170" y="450" width="24.35" height="30" as="geometry" />
        </mxCell>
        <mxCell id="ehasvwm9NtqDdE8bAoII-56" style="edgeStyle=orthogonalEdgeStyle;rounded=0;orthogonalLoop=1;jettySize=auto;html=1;entryX=0;entryY=0.5;entryDx=0;entryDy=0;" parent="1" source="ehasvwm9NtqDdE8bAoII-30" target="ehasvwm9NtqDdE8bAoII-37" edge="1">
          <mxGeometry relative="1" as="geometry" />
        </mxCell>
        <UserObject label="crm_cust_info" link="cust_info.csv" id="ehasvwm9NtqDdE8bAoII-30">
          <mxCell style="rounded=1;whiteSpace=wrap;html=1;labelBackgroundColor=light-dark(default, #e61919);fillStyle=solid;fillColor=#DB8630;" parent="1" vertex="1">
            <mxGeometry x="310" y="230" width="140" height="30" as="geometry" />
          </mxCell>
        </UserObject>
        <mxCell id="ehasvwm9NtqDdE8bAoII-57" style="edgeStyle=orthogonalEdgeStyle;rounded=0;orthogonalLoop=1;jettySize=auto;html=1;entryX=0;entryY=0.5;entryDx=0;entryDy=0;" parent="1" source="ehasvwm9NtqDdE8bAoII-31" target="ehasvwm9NtqDdE8bAoII-38" edge="1">
          <mxGeometry relative="1" as="geometry" />
        </mxCell>
        <UserObject label="crm_prd_info" link="prd_info.csv" id="ehasvwm9NtqDdE8bAoII-31">
          <mxCell style="rounded=1;whiteSpace=wrap;html=1;labelBackgroundColor=light-dark(default, #e61919);fillStyle=solid;fillColor=#DB8630;" parent="1" vertex="1">
            <mxGeometry x="310" y="270" width="140" height="30" as="geometry" />
          </mxCell>
        </UserObject>
        <mxCell id="ehasvwm9NtqDdE8bAoII-58" style="edgeStyle=orthogonalEdgeStyle;rounded=0;orthogonalLoop=1;jettySize=auto;html=1;entryX=0;entryY=0.5;entryDx=0;entryDy=0;" parent="1" source="ehasvwm9NtqDdE8bAoII-32" target="ehasvwm9NtqDdE8bAoII-39" edge="1">
          <mxGeometry relative="1" as="geometry" />
        </mxCell>
        <UserObject label="crm_sales_details" link="sales_details.csv" id="ehasvwm9NtqDdE8bAoII-32">
          <mxCell style="rounded=1;whiteSpace=wrap;html=1;labelBackgroundColor=light-dark(default, #e61919);fillStyle=solid;fillColor=#DB8630;" parent="1" vertex="1">
            <mxGeometry x="310" y="310" width="140" height="30" as="geometry" />
          </mxCell>
        </UserObject>
        <mxCell id="ehasvwm9NtqDdE8bAoII-59" style="edgeStyle=orthogonalEdgeStyle;rounded=0;orthogonalLoop=1;jettySize=auto;html=1;entryX=0;entryY=0.5;entryDx=0;entryDy=0;" parent="1" source="ehasvwm9NtqDdE8bAoII-34" target="ehasvwm9NtqDdE8bAoII-40" edge="1">
          <mxGeometry relative="1" as="geometry" />
        </mxCell>
        <mxCell id="ehasvwm9NtqDdE8bAoII-34" value="erp_CUST_AZ12" style="rounded=1;whiteSpace=wrap;html=1;labelBackgroundColor=light-dark(default, #e61919);fillStyle=solid;fillColor=#DB8630;" parent="1" vertex="1">
          <mxGeometry x="310" y="390" width="140" height="30" as="geometry" />
        </mxCell>
        <mxCell id="ehasvwm9NtqDdE8bAoII-60" style="edgeStyle=orthogonalEdgeStyle;rounded=0;orthogonalLoop=1;jettySize=auto;html=1;" parent="1" source="ehasvwm9NtqDdE8bAoII-35" target="ehasvwm9NtqDdE8bAoII-41" edge="1">
          <mxGeometry relative="1" as="geometry" />
        </mxCell>
        <mxCell id="ehasvwm9NtqDdE8bAoII-35" value="erp_LOC_A101" style="rounded=1;whiteSpace=wrap;html=1;labelBackgroundColor=light-dark(default, #e61919);fillStyle=solid;fillColor=#DB8630;" parent="1" vertex="1">
          <mxGeometry x="310" y="430" width="140" height="30" as="geometry" />
        </mxCell>
        <mxCell id="ehasvwm9NtqDdE8bAoII-61" style="edgeStyle=orthogonalEdgeStyle;rounded=0;orthogonalLoop=1;jettySize=auto;html=1;entryX=0;entryY=0.5;entryDx=0;entryDy=0;" parent="1" source="ehasvwm9NtqDdE8bAoII-36" target="ehasvwm9NtqDdE8bAoII-42" edge="1">
          <mxGeometry relative="1" as="geometry" />
        </mxCell>
        <mxCell id="ehasvwm9NtqDdE8bAoII-36" value="erp_PX_CAT_G1V2" style="rounded=1;whiteSpace=wrap;html=1;labelBackgroundColor=light-dark(default, #e61919);fillStyle=solid;fillColor=#DB8630;" parent="1" vertex="1">
          <mxGeometry x="310" y="470" width="140" height="30" as="geometry" />
        </mxCell>
        <UserObject label="crm_cust_info" link="cust_info.csv" id="ehasvwm9NtqDdE8bAoII-37">
          <mxCell style="rounded=1;whiteSpace=wrap;html=1;labelBackgroundColor=light-dark(default, #e61919);fillStyle=solid;fillColor=#B3B3B3;" parent="1" vertex="1">
            <mxGeometry x="520" y="230" width="140" height="30" as="geometry" />
          </mxCell>
        </UserObject>
        <UserObject label="crm_prd_info" link="prd_info.csv" id="ehasvwm9NtqDdE8bAoII-38">
          <mxCell style="rounded=1;whiteSpace=wrap;html=1;labelBackgroundColor=light-dark(default, #e61919);fillStyle=solid;fillColor=#B3B3B3;" parent="1" vertex="1">
            <mxGeometry x="520" y="270" width="140" height="30" as="geometry" />
          </mxCell>
        </UserObject>
        <UserObject label="crm_sales_details" link="sales_details.csv" id="ehasvwm9NtqDdE8bAoII-39">
          <mxCell style="rounded=1;whiteSpace=wrap;html=1;labelBackgroundColor=light-dark(default, #e61919);fillStyle=solid;fillColor=#B3B3B3;" parent="1" vertex="1">
            <mxGeometry x="520" y="310" width="140" height="30" as="geometry" />
          </mxCell>
        </UserObject>
        <mxCell id="ehasvwm9NtqDdE8bAoII-40" value="erp_CUST_AZ12" style="rounded=1;whiteSpace=wrap;html=1;labelBackgroundColor=light-dark(default, #e61919);fillStyle=solid;fillColor=#B3B3B3;" parent="1" vertex="1">
          <mxGeometry x="520" y="390" width="140" height="30" as="geometry" />
        </mxCell>
        <mxCell id="ehasvwm9NtqDdE8bAoII-41" value="erp_LOC_A101" style="rounded=1;whiteSpace=wrap;html=1;labelBackgroundColor=light-dark(default, #e61919);fillStyle=solid;fillColor=#B3B3B3;" parent="1" vertex="1">
          <mxGeometry x="520" y="430" width="140" height="30" as="geometry" />
        </mxCell>
        <mxCell id="ehasvwm9NtqDdE8bAoII-42" value="erp_PX_CAT_G1V2" style="rounded=1;whiteSpace=wrap;html=1;labelBackgroundColor=light-dark(default, #e61919);fillStyle=solid;fillColor=#B3B3B3;" parent="1" vertex="1">
          <mxGeometry x="520" y="470" width="140" height="30" as="geometry" />
        </mxCell>
        <mxCell id="ehasvwm9NtqDdE8bAoII-46" style="edgeStyle=orthogonalEdgeStyle;rounded=0;orthogonalLoop=1;jettySize=auto;html=1;entryX=0;entryY=0.5;entryDx=0;entryDy=0;" parent="1" source="ehasvwm9NtqDdE8bAoII-20" target="ehasvwm9NtqDdE8bAoII-31" edge="1">
          <mxGeometry relative="1" as="geometry">
            <mxPoint x="180" y="285" as="sourcePoint" />
            <mxPoint x="310" y="285" as="targetPoint" />
            <Array as="points">
              <mxPoint x="250" y="285" />
              <mxPoint x="250" y="285" />
            </Array>
          </mxGeometry>
        </mxCell>
        <mxCell id="z1PwtVXIa2w29EsP1j0s-1" value="Data Flow Diagram" style="text;html=1;align=center;verticalAlign=middle;whiteSpace=wrap;rounded=0;fontSize=30;" parent="1" vertex="1">
          <mxGeometry y="10" width="335" height="30" as="geometry" />
        </mxCell>
        <UserObject label="fact_sales" link="cust_info.csv" id="mrHEyCABAo_pQGXTHrkE-1">
          <mxCell style="rounded=1;whiteSpace=wrap;html=1;labelBackgroundColor=light-dark(default, #e61919);fillStyle=solid;fillColor=#F3C71D;strokeColor=#E5DE11;align=center;verticalAlign=middle;fontFamily=Helvetica;fontSize=12;fontColor=default;" vertex="1" parent="1">
            <mxGeometry x="730" y="280" width="140" height="30" as="geometry" />
          </mxCell>
        </UserObject>
        <UserObject label="dim_customers" link="prd_info.csv" id="mrHEyCABAo_pQGXTHrkE-2">
          <mxCell style="rounded=1;whiteSpace=wrap;html=1;labelBackgroundColor=light-dark(default, #e61919);fillStyle=solid;fillColor=#F3C71D;strokeColor=#E5DE11;align=center;verticalAlign=middle;fontFamily=Helvetica;fontSize=12;fontColor=default;" vertex="1" parent="1">
            <mxGeometry x="730" y="345" width="140" height="30" as="geometry" />
          </mxCell>
        </UserObject>
        <UserObject label="dim_products" link="sales_details.csv" id="mrHEyCABAo_pQGXTHrkE-3">
          <mxCell style="rounded=1;whiteSpace=wrap;html=1;labelBackgroundColor=light-dark(default, #e61919);fillStyle=solid;fillColor=#F3C71D;strokeColor=#E5DE11;align=center;verticalAlign=middle;fontFamily=Helvetica;fontSize=12;fontColor=default;" vertex="1" parent="1">
            <mxGeometry x="730" y="410" width="140" height="30" as="geometry" />
          </mxCell>
        </UserObject>
        <mxCell id="mrHEyCABAo_pQGXTHrkE-8" value="" style="endArrow=classic;html=1;rounded=0;entryX=0;entryY=0.5;entryDx=0;entryDy=0;exitX=1;exitY=0.5;exitDx=0;exitDy=0;jumpStyle=gap;" edge="1" parent="1" source="ehasvwm9NtqDdE8bAoII-37" target="mrHEyCABAo_pQGXTHrkE-2">
          <mxGeometry width="50" height="50" relative="1" as="geometry">
            <mxPoint x="670" y="240" as="sourcePoint" />
            <mxPoint x="720" y="190" as="targetPoint" />
          </mxGeometry>
        </mxCell>
        <mxCell id="mrHEyCABAo_pQGXTHrkE-9" value="" style="endArrow=classic;html=1;rounded=0;entryX=0;entryY=0.5;entryDx=0;entryDy=0;exitX=1;exitY=0.5;exitDx=0;exitDy=0;jumpStyle=gap;" edge="1" parent="1" source="ehasvwm9NtqDdE8bAoII-38" target="mrHEyCABAo_pQGXTHrkE-3">
          <mxGeometry width="50" height="50" relative="1" as="geometry">
            <mxPoint x="670" y="290" as="sourcePoint" />
            <mxPoint x="740" y="340" as="targetPoint" />
          </mxGeometry>
        </mxCell>
        <mxCell id="mrHEyCABAo_pQGXTHrkE-10" value="" style="endArrow=classic;html=1;rounded=0;entryX=0;entryY=0.5;entryDx=0;entryDy=0;exitX=1;exitY=0.5;exitDx=0;exitDy=0;jumpStyle=gap;" edge="1" parent="1" source="ehasvwm9NtqDdE8bAoII-39" target="mrHEyCABAo_pQGXTHrkE-1">
          <mxGeometry width="50" height="50" relative="1" as="geometry">
            <mxPoint x="660" y="325" as="sourcePoint" />
            <mxPoint x="730" y="440" as="targetPoint" />
          </mxGeometry>
        </mxCell>
        <mxCell id="mrHEyCABAo_pQGXTHrkE-11" value="" style="endArrow=classic;html=1;rounded=0;entryX=0;entryY=0.5;entryDx=0;entryDy=0;exitX=1;exitY=0.5;exitDx=0;exitDy=0;jumpStyle=gap;" edge="1" parent="1" source="ehasvwm9NtqDdE8bAoII-40" target="mrHEyCABAo_pQGXTHrkE-2">
          <mxGeometry width="50" height="50" relative="1" as="geometry">
            <mxPoint x="660" y="395" as="sourcePoint" />
            <mxPoint x="730" y="535" as="targetPoint" />
          </mxGeometry>
        </mxCell>
        <mxCell id="mrHEyCABAo_pQGXTHrkE-12" value="" style="endArrow=classic;html=1;rounded=0;entryX=0;entryY=0.5;entryDx=0;entryDy=0;exitX=1;exitY=0.5;exitDx=0;exitDy=0;jumpStyle=gap;" edge="1" parent="1" source="ehasvwm9NtqDdE8bAoII-41" target="mrHEyCABAo_pQGXTHrkE-2">
          <mxGeometry width="50" height="50" relative="1" as="geometry">
            <mxPoint x="660" y="448" as="sourcePoint" />
            <mxPoint x="730" y="403" as="targetPoint" />
          </mxGeometry>
        </mxCell>
        <mxCell id="mrHEyCABAo_pQGXTHrkE-13" value="" style="endArrow=classic;html=1;rounded=0;entryX=0;entryY=0.5;entryDx=0;entryDy=0;exitX=1;exitY=0.5;exitDx=0;exitDy=0;jumpStyle=gap;" edge="1" parent="1" source="ehasvwm9NtqDdE8bAoII-42" target="mrHEyCABAo_pQGXTHrkE-3">
          <mxGeometry width="50" height="50" relative="1" as="geometry">
            <mxPoint x="660" y="487.5" as="sourcePoint" />
            <mxPoint x="730" y="402.5" as="targetPoint" />
          </mxGeometry>
        </mxCell>
      </root>
    </mxGraphModel>
  </diagram>
</mxfile>
